<svg width="20" height="19" viewBox="0 0 20 19" fill="none" xmlns="http://www.w3.org/2000/svg">
<path d="M19.1838 4.99707C19.0111 4.69781 18.7637 4.44843 18.4659 4.27325C18.1681 4.09806 17.83 4.00305 17.4845 3.99749H4.68988L4.11013 1.73844C4.05155 1.52037 3.92087 1.32856 3.73936 1.19424C3.55785 1.05993 3.33622 0.991025 3.11055 0.998755H1.11139C0.84629 0.998755 0.592043 1.10407 0.404586 1.29152C0.217129 1.47898 0.111816 1.73323 0.111816 1.99833C0.111816 2.26344 0.217129 2.51768 0.404586 2.70514C0.592043 2.8926 0.84629 2.99791 1.11139 2.99791H2.35087L5.10971 13.2536C5.16828 13.4717 5.29897 13.6635 5.48047 13.7978C5.66198 13.9321 5.88362 14.001 6.10928 13.9933H15.1055C15.2901 13.9927 15.4709 13.941 15.6279 13.844C15.785 13.747 15.912 13.6083 15.9951 13.4435L19.2737 6.88627C19.4158 6.58841 19.482 6.26 19.4663 5.93036C19.4506 5.60071 19.3535 5.28008 19.1838 4.99707ZM14.4857 11.9941H6.86896L5.23965 5.99665H17.4845L14.4857 11.9941Z" fill="#231F20"/>
<path d="M5.60972 18.9912C6.4378 18.9912 7.10909 18.3199 7.10909 17.4918C7.10909 16.6637 6.4378 15.9924 5.60972 15.9924C4.78164 15.9924 4.11035 16.6637 4.11035 17.4918C4.11035 18.3199 4.78164 18.9912 5.60972 18.9912Z" fill="#231F20"/>
<path d="M15.6053 18.9912C16.4334 18.9912 17.1047 18.3199 17.1047 17.4918C17.1047 16.6637 16.4334 15.9924 15.6053 15.9924C14.7772 15.9924 14.106 16.6637 14.106 17.4918C14.106 18.3199 14.7772 18.9912 15.6053 18.9912Z" fill="#231F20"/>
</svg>
