<svg width="44" height="44" viewBox="0 0 44 44" fill="none" xmlns="http://www.w3.org/2000/svg">
<path d="M22 20.197C23.4264 20.197 24.8208 19.774 26.0068 18.9815C27.1928 18.189 28.1172 17.0627 28.6631 15.7448C29.209 14.427 29.3518 12.9769 29.0735 11.5778C28.7952 10.1788 28.1083 8.89375 27.0997 7.88512C26.0911 6.87649 24.806 6.1896 23.407 5.91132C22.008 5.63304 20.5578 5.77586 19.24 6.32173C17.9222 6.8676 16.7958 7.79199 16.0033 8.97802C15.2108 10.164 14.7878 11.5584 14.7878 12.9849C14.7878 14.8976 15.5477 16.7321 16.9002 18.0846C18.2528 19.4371 20.0872 20.197 22 20.197Z" fill="#1E1E1E"/>
<path d="M32.8181 38.2273C33.2963 38.2273 33.7549 38.0373 34.093 37.6992C34.4311 37.3611 34.6211 36.9025 34.6211 36.4243C34.6211 33.0769 33.2914 29.8667 30.9244 27.4997C28.5575 25.1328 25.3472 23.8031 21.9999 23.8031C18.6525 23.8031 15.4423 25.1328 13.0753 27.4997C10.7084 29.8667 9.37866 33.0769 9.37866 36.4243C9.37866 36.9025 9.56862 37.3611 9.90676 37.6992C10.2449 38.0373 10.7035 38.2273 11.1817 38.2273H32.8181Z" fill="#1E1E1E"/>
</svg>
