<svg width="34" height="25" viewBox="0 0 34 25" fill="none" xmlns="http://www.w3.org/2000/svg">
<path d="M17.023 15.1734C18.3618 15.1734 19.4471 14.0006 19.4471 12.554C19.4471 11.1073 18.3618 9.93457 17.023 9.93457C15.6842 9.93457 14.5989 11.1073 14.5989 12.554C14.5989 14.0006 15.6842 15.1734 17.023 15.1734Z" fill="#E3E3E3"/>
<path d="M32.9737 11.6809C31.9394 9.74259 26.2508 0.0158753 16.5866 0.330204C7.64968 0.574681 2.47822 9.06154 1.07223 11.6809C0.930386 11.9464 0.855713 12.2475 0.855713 12.5541C0.855713 12.8606 0.930386 13.1617 1.07223 13.4272C2.09036 15.3306 7.53656 24.778 17.0553 24.778H17.4593C26.3962 24.5335 31.5839 16.0466 32.9737 13.4272C33.1155 13.1617 33.1902 12.8606 33.1902 12.5541C33.1902 12.2475 33.1155 11.9464 32.9737 11.6809ZM17.023 18.666C15.9043 18.666 14.8107 18.3076 13.8805 17.636C12.9503 16.9644 12.2253 16.0098 11.7972 14.893C11.3691 13.7762 11.2571 12.5473 11.4754 11.3617C11.6936 10.1761 12.2323 9.08706 13.0234 8.23229C13.8144 7.37752 14.8223 6.79541 15.9195 6.55958C17.0167 6.32375 18.154 6.44479 19.1875 6.90739C20.2211 7.36998 21.1045 8.15337 21.726 9.15847C22.3475 10.1636 22.6792 11.3453 22.6792 12.5541C22.6792 14.1751 22.0833 15.7297 21.0226 16.8759C19.9618 18.0221 18.5231 18.666 17.023 18.666Z" fill="#E3E3E3"/>
</svg>
