<svg xmlns="http://www.w3.org/2000/svg" xmlns:xlink="http://www.w3.org/1999/xlink" version="1.1" width="256" height="256" viewBox="0 0 256 256" xml:space="preserve">

<defs>
</defs>
<g style="stroke: none; stroke-width: 0; stroke-dasharray: none; stroke-linecap: butt; stroke-linejoin: miter; stroke-miterlimit: 10; fill: none; fill-rule: nonzero; opacity: 1;" transform="translate(1.4065934065934016 1.4065934065934016) scale(2.81 2.81)" >
	<circle cx="45" cy="45" r="45" style="stroke: none; stroke-width: 1; stroke-dasharray: none; stroke-linecap: butt; stroke-linejoin: miter; stroke-miterlimit: 10; fill: rgb(32,196,203); fill-rule: nonzero; opacity: 1;" transform="  matrix(1 0 0 1 0 0) "/>
	<path d="M 22.6 41.301 c -0.64 0 -1.28 -0.244 -1.768 -0.732 c -0.977 -0.976 -0.977 -2.559 0 -3.535 l 12.8 -12.8 c 0.976 -0.977 2.56 -0.977 3.535 0 c 0.977 0.976 0.977 2.559 0 3.535 l -12.8 12.8 C 23.88 41.057 23.24 41.301 22.6 41.301 z" style="stroke: none; stroke-width: 1; stroke-dasharray: none; stroke-linecap: butt; stroke-linejoin: miter; stroke-miterlimit: 10; fill: rgb(27,167,173); fill-rule: nonzero; opacity: 1;" transform=" matrix(1 0 0 1 0 0) " stroke-linecap="round" />
	<path d="M 69.117 36.772 H 14.883 c -1.048 0 -1.832 0.771 -1.618 1.593 l 8.08 31.081 c 0.16 0.614 0.835 1.054 1.618 1.054 h 38.074 c 0.783 0 1.459 -0.44 1.618 -1.054 l 8.08 -31.081 C 70.949 37.543 70.166 36.772 69.117 36.772 z M 33.044 63.467 c 0 0.563 -0.457 1.02 -1.02 1.02 h -3.182 c -0.563 0 -1.02 -0.457 -1.02 -1.02 V 44.62 c 0 -0.563 0.457 -1.02 1.02 -1.02 h 3.182 c 0.563 0 1.02 0.457 1.02 1.02 V 63.467 z M 44.611 63.467 c 0 0.563 -0.457 1.02 -1.02 1.02 h -3.182 c -0.563 0 -1.02 -0.457 -1.02 -1.02 V 44.62 c 0 -0.563 0.457 -1.02 1.02 -1.02 h 3.182 c 0.563 0 1.02 0.457 1.02 1.02 V 63.467 z M 56.177 63.467 c 0 0.563 -0.457 1.02 -1.02 1.02 h -3.182 c -0.563 0 -1.02 -0.457 -1.02 -1.02 V 44.62 c 0 -0.563 0.457 -1.02 1.02 -1.02 h 3.182 c 0.563 0 1.02 0.457 1.02 1.02 V 63.467 z" style="stroke: none; stroke-width: 1; stroke-dasharray: none; stroke-linecap: butt; stroke-linejoin: miter; stroke-miterlimit: 10; fill: rgb(27,167,173); fill-rule: nonzero; opacity: 1;" transform=" matrix(1 0 0 1 0 0) " stroke-linecap="round" />
	<path d="M 61.4 41.301 c -0.64 0 -1.279 -0.244 -1.768 -0.732 l -12.801 -12.8 c -0.977 -0.976 -0.977 -2.559 0 -3.535 c 0.977 -0.977 2.559 -0.977 3.535 0 l 12.801 12.8 c 0.977 0.976 0.977 2.559 0 3.535 C 62.68 41.057 62.04 41.301 61.4 41.301 z" style="stroke: none; stroke-width: 1; stroke-dasharray: none; stroke-linecap: butt; stroke-linejoin: miter; stroke-miterlimit: 10; fill: rgb(27,167,173); fill-rule: nonzero; opacity: 1;" transform=" matrix(1 0 0 1 0 0) " stroke-linecap="round" />
	<path d="M 25.6 38.301 c -0.64 0 -1.28 -0.244 -1.768 -0.732 c -0.977 -0.976 -0.977 -2.559 0 -3.535 l 12.8 -12.8 c 0.976 -0.977 2.56 -0.977 3.535 0 c 0.977 0.976 0.977 2.559 0 3.535 l -12.8 12.8 C 26.88 38.057 26.24 38.301 25.6 38.301 z" style="stroke: none; stroke-width: 1; stroke-dasharray: none; stroke-linecap: butt; stroke-linejoin: miter; stroke-miterlimit: 10; fill: rgb(255,255,255); fill-rule: nonzero; opacity: 1;" transform=" matrix(1 0 0 1 0 0) " stroke-linecap="round" />
	<path d="M 72.117 33.772 H 17.883 c -1.048 0 -1.832 0.771 -1.618 1.593 l 8.08 31.081 c 0.16 0.614 0.835 1.054 1.618 1.054 h 38.074 c 0.783 0 1.459 -0.44 1.618 -1.054 l 8.08 -31.081 C 73.949 34.543 73.166 33.772 72.117 33.772 z M 36.044 60.467 c 0 0.563 -0.457 1.02 -1.02 1.02 h -3.182 c -0.563 0 -1.02 -0.457 -1.02 -1.02 V 41.62 c 0 -0.563 0.457 -1.02 1.02 -1.02 h 3.182 c 0.563 0 1.02 0.457 1.02 1.02 V 60.467 z M 47.611 60.467 c 0 0.563 -0.457 1.02 -1.02 1.02 h -3.182 c -0.563 0 -1.02 -0.457 -1.02 -1.02 V 41.62 c 0 -0.563 0.457 -1.02 1.02 -1.02 h 3.182 c 0.563 0 1.02 0.457 1.02 1.02 V 60.467 z M 59.177 60.467 c 0 0.563 -0.457 1.02 -1.02 1.02 h -3.182 c -0.563 0 -1.02 -0.457 -1.02 -1.02 V 41.62 c 0 -0.563 0.457 -1.02 1.02 -1.02 h 3.182 c 0.563 0 1.02 0.457 1.02 1.02 V 60.467 z" style="stroke: none; stroke-width: 1; stroke-dasharray: none; stroke-linecap: butt; stroke-linejoin: miter; stroke-miterlimit: 10; fill: rgb(255,255,255); fill-rule: nonzero; opacity: 1;" transform=" matrix(1 0 0 1 0 0) " stroke-linecap="round" />
	<path d="M 64.4 38.301 c -0.64 0 -1.279 -0.244 -1.768 -0.732 l -12.801 -12.8 c -0.977 -0.976 -0.977 -2.559 0 -3.535 c 0.977 -0.977 2.559 -0.977 3.535 0 l 12.801 12.8 c 0.977 0.976 0.977 2.559 0 3.535 C 65.68 38.057 65.04 38.301 64.4 38.301 z" style="stroke: none; stroke-width: 1; stroke-dasharray: none; stroke-linecap: butt; stroke-linejoin: miter; stroke-miterlimit: 10; fill: rgb(255,255,255); fill-rule: nonzero; opacity: 1;" transform=" matrix(1 0 0 1 0 0) " stroke-linecap="round" />
</g>
</svg>